<?xml version="1.0" encoding="UTF-8"?>
<svg xmlns="http://www.w3.org/2000/svg" xmlns:xlink="http://www.w3.org/1999/xlink" width="224.87999pt" height="225pt" viewBox="0 0 224.87999 225" version="1.2">
<defs>
<clipPath id="clip1">
  <path d="M 75 3.714844 L 218 3.714844 L 218 147 L 75 147 Z M 75 3.714844 "/>
</clipPath>
</defs>
<g id="surface1">
<path style=" stroke:none;fill-rule:nonzero;fill:rgb(20.388794%,60.778809%,51.368713%);fill-opacity:1;" d="M 67.238281 145.800781 C 66.761719 145.324219 66.238281 144.910156 65.683594 144.550781 L 89.3125 120.941406 C 90.992188 123.042969 92.796875 125.070312 94.742188 127.015625 C 96.679688 128.949219 98.710938 130.757812 100.816406 132.445312 L 77.195312 156.050781 C 76.835938 155.496094 76.421875 154.972656 75.941406 154.496094 L 67.238281 145.800781 "/>
<path style=" stroke:none;fill-rule:nonzero;fill:rgb(20.388794%,60.778809%,51.368713%);fill-opacity:1;" d="M 2.816406 199.964844 L 55.480469 147.339844 C 56.847656 145.980469 58.660156 145.226562 60.589844 145.226562 C 62.519531 145.226562 64.332031 145.980469 65.695312 147.339844 L 74.398438 156.039062 C 75.765625 157.402344 76.515625 159.210938 76.515625 161.140625 C 76.515625 163.066406 75.765625 164.882812 74.398438 166.242188 L 21.734375 218.867188 C 20.367188 220.226562 18.554688 220.980469 16.625 220.980469 C 14.699219 220.980469 12.882812 220.230469 11.519531 218.867188 L 2.8125 210.167969 C 0 207.355469 0 202.78125 2.816406 199.964844 "/>
<g clip-path="url(#clip1)" clip-rule="nonzero">
<path style=" stroke:none;fill-rule:nonzero;fill:rgb(20.388794%,60.778809%,51.368713%);fill-opacity:1;" d="M 105.515625 116.25 C 94.519531 105.261719 88.464844 90.652344 88.464844 75.113281 C 88.464844 59.574219 94.519531 44.964844 105.515625 33.976562 C 116.515625 22.988281 131.136719 16.941406 146.691406 16.941406 C 162.242188 16.941406 176.863281 22.988281 187.859375 33.976562 C 210.5625 56.660156 210.5625 93.566406 187.859375 116.25 C 176.863281 127.238281 162.242188 133.289062 146.691406 133.289062 C 131.136719 133.289062 116.515625 127.238281 105.515625 116.25 Z M 96.289062 125.472656 C 109.75 138.925781 127.648438 146.332031 146.691406 146.332031 C 165.730469 146.332031 183.628906 138.925781 197.09375 125.472656 C 224.886719 97.707031 224.886719 52.523438 197.09375 24.753906 C 183.628906 11.304688 165.730469 3.894531 146.691406 3.894531 C 127.648438 3.894531 109.75 11.304688 96.289062 24.753906 C 68.496094 52.523438 68.496094 97.707031 96.289062 125.472656 "/>
</g>
<path style=" stroke:none;fill-rule:nonzero;fill:rgb(20.388794%,60.778809%,51.368713%);fill-opacity:1;" d="M 93.394531 75.117188 C 93.394531 60.890625 98.9375 47.519531 109.003906 37.460938 C 119.070312 27.402344 132.453125 21.863281 146.691406 21.863281 C 160.929688 21.863281 174.308594 27.402344 184.375 37.460938 C 194.441406 47.519531 199.988281 60.890625 199.988281 75.117188 C 199.988281 89.339844 194.445312 102.710938 184.375 112.769531 C 174.3125 122.828125 160.929688 128.363281 146.691406 128.363281 C 132.453125 128.363281 119.070312 122.828125 109.003906 112.769531 C 98.9375 102.710938 93.394531 89.339844 93.394531 75.117188 Z M 90.648438 75.113281 C 90.648438 90.070312 96.476562 104.132812 107.058594 114.710938 C 117.648438 125.285156 131.722656 131.109375 146.691406 131.109375 C 161.660156 131.109375 175.734375 125.285156 186.316406 114.710938 C 208.171875 92.878906 208.171875 57.351562 186.316406 35.519531 C 175.734375 24.945312 161.660156 19.121094 146.691406 19.121094 C 131.71875 19.121094 117.648438 24.945312 107.058594 35.519531 C 96.476562 46.09375 90.648438 60.15625 90.648438 75.113281 "/>
<path style=" stroke:none;fill-rule:nonzero;fill:rgb(20.388794%,60.778809%,51.368713%);fill-opacity:1;" d="M 171.722656 66.246094 C 173.585938 66.246094 175.339844 66.972656 176.652344 68.289062 C 179.375 71.003906 179.375 75.425781 176.652344 78.144531 C 175.339844 79.460938 173.585938 80.1875 171.722656 80.1875 C 169.859375 80.1875 168.109375 79.460938 166.789062 78.144531 C 165.472656 76.828125 164.746094 75.074219 164.746094 73.214844 C 164.746094 71.355469 165.472656 69.601562 166.789062 68.289062 C 168.105469 66.972656 169.859375 66.246094 171.722656 66.246094 "/>
<path style=" stroke:none;fill-rule:nonzero;fill:rgb(20.388794%,60.778809%,51.368713%);fill-opacity:1;" d="M 153.660156 70.722656 C 154.328125 70.722656 154.953125 70.984375 155.425781 71.453125 C 156.398438 72.425781 156.398438 74.007812 155.425781 74.976562 C 154.484375 75.917969 152.839844 75.917969 151.898438 74.976562 C 150.925781 74.007812 150.925781 72.425781 151.898438 71.453125 C 152.367188 70.984375 152.996094 70.722656 153.660156 70.722656 "/>
</g>
</svg>
