<?xml version="1.0" encoding="UTF-8"?>
<svg xmlns="http://www.w3.org/2000/svg" xmlns:xlink="http://www.w3.org/1999/xlink" width="224.87999pt" height="225pt" viewBox="0 0 224.87999 225" version="1.2">
<defs>
<clipPath id="clip1">
  <path d="M 0 63 L 224.761719 63 L 224.761719 219 L 0 219 Z M 0 63 "/>
</clipPath>
<clipPath id="clip2">
  <path d="M 91 63 L 224.761719 63 L 224.761719 219 L 91 219 Z M 91 63 "/>
</clipPath>
<clipPath id="clip3">
  <path d="M 0 6 L 224.761719 6 L 224.761719 168 L 0 168 Z M 0 6 "/>
</clipPath>
</defs>
<g id="surface1">
<g clip-path="url(#clip1)" clip-rule="nonzero">
<path style=" stroke:none;fill-rule:nonzero;fill:rgb(87.449646%,90.979004%,95.689392%);fill-opacity:1;" d="M 39.214844 63.957031 L 185.667969 63.957031 C 186.949219 63.957031 188.230469 64.023438 189.511719 64.148438 C 190.789062 64.273438 192.058594 64.460938 193.316406 64.710938 C 194.578125 64.960938 195.820312 65.273438 197.050781 65.644531 C 198.277344 66.019531 199.488281 66.449219 200.671875 66.941406 C 201.859375 67.433594 203.019531 67.980469 204.152344 68.585938 C 205.285156 69.191406 206.382812 69.847656 207.453125 70.5625 C 208.519531 71.273438 209.550781 72.039062 210.542969 72.851562 C 211.535156 73.667969 212.488281 74.527344 213.394531 75.433594 C 214.304688 76.339844 215.164062 77.292969 215.980469 78.28125 C 216.792969 79.273438 217.558594 80.304688 218.269531 81.371094 C 218.984375 82.4375 219.644531 83.539062 220.25 84.667969 C 220.855469 85.800781 221.402344 86.960938 221.894531 88.144531 C 222.386719 89.332031 222.820312 90.535156 223.191406 91.765625 C 223.5625 92.992188 223.875 94.234375 224.125 95.496094 C 224.378906 96.753906 224.566406 98.019531 224.691406 99.296875 C 224.816406 100.574219 224.878906 101.855469 224.878906 103.136719 L 224.878906 204.949219 C 224.878906 205.832031 224.792969 206.710938 224.621094 207.578125 C 224.449219 208.445312 224.191406 209.289062 223.851562 210.105469 C 223.515625 210.925781 223.097656 211.703125 222.605469 212.4375 C 222.113281 213.171875 221.554688 213.855469 220.929688 214.480469 C 220.300781 215.105469 219.621094 215.664062 218.882812 216.15625 C 218.148438 216.648438 217.367188 217.0625 216.550781 217.402344 C 215.730469 217.742188 214.886719 217.996094 214.019531 218.171875 C 213.152344 218.34375 212.273438 218.429688 211.386719 218.429688 L 13.492188 218.429688 C 12.605469 218.429688 11.730469 218.34375 10.859375 218.171875 C 9.992188 217.996094 9.148438 217.742188 8.328125 217.402344 C 7.511719 217.0625 6.734375 216.648438 5.996094 216.15625 C 5.261719 215.664062 4.578125 215.105469 3.953125 214.480469 C 3.324219 213.855469 2.765625 213.171875 2.273438 212.4375 C 1.78125 211.703125 1.367188 210.925781 1.027344 210.105469 C 0.6875 209.289062 0.433594 208.445312 0.257812 207.578125 C 0.0859375 206.710938 0 205.832031 0 204.949219 L 0 103.136719 C 0 101.855469 0.0625 100.574219 0.1875 99.296875 C 0.316406 98.019531 0.503906 96.753906 0.753906 95.496094 C 1.003906 94.234375 1.316406 92.992188 1.6875 91.765625 C 2.0625 90.535156 2.492188 89.332031 2.984375 88.144531 C 3.476562 86.960938 4.023438 85.800781 4.628906 84.667969 C 5.234375 83.539062 5.894531 82.4375 6.609375 81.371094 C 7.320312 80.304688 8.085938 79.273438 8.902344 78.28125 C 9.714844 77.292969 10.578125 76.339844 11.484375 75.433594 C 12.394531 74.527344 13.34375 73.667969 14.335938 72.851562 C 15.328125 72.039062 16.359375 71.273438 17.425781 70.5625 C 18.496094 69.847656 19.59375 69.191406 20.726562 68.585938 C 21.859375 67.980469 23.019531 67.433594 24.207031 66.941406 C 25.394531 66.449219 26.601562 66.019531 27.832031 65.644531 C 29.058594 65.273438 30.304688 64.960938 31.5625 64.710938 C 32.824219 64.460938 34.089844 64.273438 35.371094 64.148438 C 36.648438 64.023438 37.929688 63.957031 39.214844 63.957031 Z M 39.214844 63.957031 "/>
</g>
<g clip-path="url(#clip2)" clip-rule="nonzero">
<path style=" stroke:none;fill-rule:nonzero;fill:rgb(79.998779%,84.709167%,89.7995%);fill-opacity:1;" d="M 224.878906 204.949219 L 224.878906 93.824219 C 224.878906 92.84375 224.828125 91.867188 224.730469 90.894531 C 224.632812 89.921875 224.488281 88.953125 224.296875 87.996094 C 224.105469 87.035156 223.867188 86.085938 223.578125 85.152344 C 223.292969 84.214844 222.964844 83.292969 222.585938 82.390625 C 222.210938 81.488281 221.792969 80.605469 221.328125 79.742188 C 220.867188 78.878906 220.363281 78.042969 219.820312 77.226562 C 219.273438 76.414062 218.691406 75.628906 218.066406 74.875 C 217.445312 74.117188 216.789062 73.394531 216.09375 72.703125 C 215.402344 72.011719 214.675781 71.355469 213.917969 70.734375 C 213.160156 70.113281 212.375 69.53125 211.558594 68.988281 C 210.746094 68.445312 209.90625 67.945312 209.042969 67.484375 C 208.179688 67.023438 207.292969 66.605469 206.386719 66.230469 C 205.484375 65.855469 204.5625 65.527344 203.625 65.246094 C 202.6875 64.960938 201.738281 64.722656 200.777344 64.53125 C 199.816406 64.339844 198.847656 64.199219 197.875 64.101562 C 196.898438 64.007812 195.921875 63.957031 194.941406 63.957031 L 113.5625 63.957031 C 102.179688 95.460938 91.964844 126.824219 91.964844 130.382812 L 91.964844 149.761719 C 91.96875 150.820312 92.109375 151.863281 92.382812 152.890625 C 92.660156 153.914062 93.0625 154.886719 93.589844 155.804688 C 94.121094 156.726562 94.761719 157.5625 95.511719 158.316406 C 96.257812 159.066406 97.09375 159.710938 98.011719 160.246094 L 188.101562 212.203125 C 191.664062 214.25 195.433594 215.800781 199.40625 216.855469 C 203.378906 217.910156 207.417969 218.4375 211.527344 218.429688 C 212.40625 218.421875 213.277344 218.324219 214.140625 218.144531 C 215 217.96875 215.835938 217.707031 216.648438 217.363281 C 217.457031 217.019531 218.226562 216.601562 218.957031 216.109375 C 219.683594 215.617188 220.359375 215.058594 220.976562 214.433594 C 221.597656 213.808594 222.148438 213.128906 222.636719 212.394531 C 223.121094 211.660156 223.53125 210.886719 223.867188 210.074219 C 224.199219 209.261719 224.453125 208.425781 224.625 207.5625 C 224.792969 206.699219 224.878906 205.828125 224.878906 204.949219 Z M 224.878906 204.949219 "/>
</g>
<g clip-path="url(#clip3)" clip-rule="nonzero">
<path style=" stroke:none;fill-rule:nonzero;fill:rgb(94.509888%,93.728638%,26.669312%);fill-opacity:1;" d="M 224.878906 95.882812 C 224.882812 93.890625 224.75 91.90625 224.492188 89.929688 C 224.234375 87.953125 223.84375 86 223.328125 84.078125 C 222.8125 82.152344 222.175781 80.265625 221.410156 78.425781 C 220.648438 76.582031 219.769531 74.800781 218.773438 73.074219 C 217.773438 71.347656 216.667969 69.691406 215.457031 68.113281 C 214.242188 66.53125 212.929688 65.035156 211.519531 63.625 C 210.109375 62.214844 208.613281 60.902344 207.027344 59.691406 C 205.445312 58.476562 203.792969 57.371094 202.0625 56.375 L 117.125 7.367188 C 116.414062 6.957031 115.660156 6.644531 114.863281 6.429688 C 114.070312 6.21875 113.261719 6.113281 112.441406 6.113281 C 111.617188 6.113281 110.808594 6.21875 110.015625 6.429688 C 109.21875 6.644531 108.46875 6.957031 107.753906 7.367188 L 22.816406 56.375 C 21.089844 57.371094 19.433594 58.476562 17.851562 59.691406 C 16.269531 60.902344 14.773438 62.214844 13.359375 63.625 C 11.949219 65.035156 10.636719 66.53125 9.425781 68.113281 C 8.210938 69.691406 7.105469 71.347656 6.109375 73.074219 C 5.109375 74.800781 4.230469 76.582031 3.46875 78.425781 C 2.707031 80.265625 2.066406 82.152344 1.550781 84.078125 C 1.035156 86 0.648438 87.953125 0.386719 89.929688 C 0.128906 91.90625 0 93.890625 0 95.882812 C 0 95.882812 0 95.882812 0 96.164062 C 0 96.445312 0 96.726562 0 96.726562 C 0 97.785156 0.136719 98.824219 0.410156 99.847656 C 0.683594 100.871094 1.085938 101.839844 1.617188 102.753906 C 2.148438 103.671875 2.789062 104.503906 3.539062 105.25 C 4.289062 106 5.125 106.636719 6.042969 107.164062 L 107.753906 165.957031 C 108.46875 166.367188 109.21875 166.679688 110.015625 166.890625 C 110.808594 167.105469 111.617188 167.210938 112.441406 167.210938 C 113.261719 167.210938 114.070312 167.105469 114.863281 166.890625 C 115.660156 166.679688 116.414062 166.367188 117.125 165.957031 L 218.835938 107.257812 C 219.761719 106.726562 220.601562 106.082031 221.355469 105.328125 C 222.113281 104.574219 222.753906 103.734375 223.285156 102.808594 C 223.816406 101.882812 224.21875 100.90625 224.488281 99.871094 C 224.757812 98.839844 224.890625 97.792969 224.878906 96.726562 C 224.878906 96.492188 224.878906 96.304688 224.878906 96.070312 C 224.878906 95.835938 224.878906 95.976562 224.878906 95.882812 Z M 224.878906 95.882812 "/>
</g>
<path style=" stroke:none;fill-rule:nonzero;fill:rgb(100%,100%,100%);fill-opacity:1;" d="M 112.441406 108.285156 C 111.917969 108.285156 111.394531 108.261719 110.875 108.210938 C 110.351562 108.160156 109.835938 108.082031 109.324219 107.980469 C 108.808594 107.878906 108.304688 107.75 107.800781 107.601562 C 107.300781 107.449219 106.808594 107.273438 106.328125 107.070312 C 105.84375 106.871094 105.371094 106.648438 104.910156 106.402344 C 104.449219 106.15625 104 105.886719 103.5625 105.597656 C 103.128906 105.304688 102.710938 104.996094 102.304688 104.664062 C 101.902344 104.332031 101.511719 103.980469 101.144531 103.613281 C 100.773438 103.242188 100.421875 102.855469 100.089844 102.453125 C 99.757812 102.046875 99.445312 101.628906 99.15625 101.191406 C 98.867188 100.757812 98.597656 100.3125 98.351562 99.847656 C 98.105469 99.386719 97.878906 98.917969 97.679688 98.433594 C 97.480469 97.949219 97.304688 97.457031 97.152344 96.957031 C 97 96.457031 96.875 95.953125 96.769531 95.4375 C 96.667969 94.925781 96.59375 94.410156 96.542969 93.890625 C 96.488281 93.371094 96.464844 92.847656 96.464844 92.324219 C 96.464844 91.800781 96.488281 91.28125 96.542969 90.761719 C 96.59375 90.242188 96.667969 89.722656 96.769531 89.210938 C 96.875 88.699219 97 88.191406 97.152344 87.691406 C 97.304688 87.191406 97.480469 86.699219 97.679688 86.214844 C 97.878906 85.734375 98.105469 85.261719 98.351562 84.800781 C 98.597656 84.339844 98.867188 83.890625 99.15625 83.457031 C 99.445312 83.023438 99.757812 82.601562 100.089844 82.199219 C 100.421875 81.792969 100.773438 81.40625 101.144531 81.039062 C 101.511719 80.667969 101.902344 80.316406 102.304688 79.988281 C 102.710938 79.65625 103.128906 79.34375 103.5625 79.054688 C 104 78.761719 104.449219 78.496094 104.910156 78.246094 C 105.371094 78 105.84375 77.777344 106.328125 77.578125 C 106.808594 77.378906 107.300781 77.203125 107.800781 77.050781 C 108.304688 76.898438 108.808594 76.773438 109.324219 76.667969 C 109.835938 76.566406 110.351562 76.492188 110.875 76.441406 C 111.394531 76.390625 111.917969 76.363281 112.441406 76.363281 C 112.964844 76.363281 113.484375 76.390625 114.007812 76.441406 C 114.527344 76.492188 115.042969 76.566406 115.558594 76.667969 C 116.070312 76.773438 116.578125 76.898438 117.078125 77.050781 C 117.578125 77.203125 118.070312 77.378906 118.554688 77.578125 C 119.035156 77.777344 119.507812 78 119.972656 78.246094 C 120.433594 78.496094 120.878906 78.761719 121.316406 79.054688 C 121.75 79.34375 122.171875 79.65625 122.574219 79.988281 C 122.980469 80.316406 123.367188 80.667969 123.738281 81.039062 C 124.105469 81.40625 124.457031 81.792969 124.789062 82.199219 C 125.121094 82.601562 125.433594 83.023438 125.722656 83.457031 C 126.015625 83.890625 126.28125 84.339844 126.53125 84.800781 C 126.777344 85.261719 127 85.734375 127.199219 86.214844 C 127.398438 86.699219 127.574219 87.191406 127.726562 87.691406 C 127.878906 88.191406 128.007812 88.699219 128.109375 89.210938 C 128.210938 89.722656 128.289062 90.242188 128.339844 90.761719 C 128.390625 91.28125 128.414062 91.800781 128.414062 92.324219 C 128.414062 92.847656 128.390625 93.371094 128.339844 93.890625 C 128.289062 94.410156 128.210938 94.925781 128.109375 95.4375 C 128.007812 95.953125 127.878906 96.457031 127.726562 96.957031 C 127.574219 97.457031 127.398438 97.949219 127.199219 98.433594 C 127 98.917969 126.777344 99.386719 126.53125 99.847656 C 126.28125 100.3125 126.015625 100.757812 125.722656 101.191406 C 125.433594 101.628906 125.121094 102.046875 124.789062 102.453125 C 124.457031 102.855469 124.105469 103.242188 123.738281 103.613281 C 123.367188 103.980469 122.980469 104.332031 122.574219 104.664062 C 122.171875 104.996094 121.75 105.304688 121.316406 105.597656 C 120.878906 105.886719 120.433594 106.15625 119.972656 106.402344 C 119.507812 106.648438 119.035156 106.871094 118.554688 107.070312 C 118.070312 107.273438 117.578125 107.449219 117.078125 107.601562 C 116.578125 107.75 116.070312 107.878906 115.558594 107.980469 C 115.042969 108.082031 114.527344 108.160156 114.007812 108.210938 C 113.484375 108.261719 112.964844 108.285156 112.441406 108.285156 Z M 112.441406 85.726562 C 112.007812 85.726562 111.578125 85.765625 111.152344 85.851562 C 110.726562 85.9375 110.3125 86.0625 109.910156 86.226562 C 109.511719 86.394531 109.128906 86.597656 108.769531 86.835938 C 108.410156 87.078125 108.074219 87.351562 107.769531 87.65625 C 107.460938 87.964844 107.1875 88.296875 106.949219 88.660156 C 106.707031 89.019531 106.503906 89.398438 106.335938 89.800781 C 106.171875 90.199219 106.046875 90.613281 105.960938 91.039062 C 105.875 91.460938 105.835938 91.890625 105.835938 92.324219 C 105.835938 92.757812 105.875 93.1875 105.960938 93.613281 C 106.046875 94.039062 106.171875 94.449219 106.335938 94.851562 C 106.503906 95.25 106.707031 95.632812 106.949219 95.992188 C 107.1875 96.351562 107.460938 96.6875 107.769531 96.992188 C 108.074219 97.296875 108.410156 97.570312 108.769531 97.8125 C 109.128906 98.054688 109.511719 98.257812 109.910156 98.421875 C 110.3125 98.589844 110.726562 98.714844 111.152344 98.796875 C 111.578125 98.882812 112.007812 98.925781 112.441406 98.925781 C 112.875 98.925781 113.304688 98.882812 113.730469 98.796875 C 114.152344 98.714844 114.566406 98.589844 114.96875 98.421875 C 115.367188 98.257812 115.75 98.054688 116.109375 97.8125 C 116.46875 97.570312 116.804688 97.296875 117.109375 96.992188 C 117.417969 96.6875 117.691406 96.351562 117.933594 95.992188 C 118.171875 95.632812 118.378906 95.25 118.542969 94.851562 C 118.710938 94.449219 118.835938 94.039062 118.917969 93.613281 C 119.003906 93.1875 119.046875 92.757812 119.046875 92.324219 C 119.046875 91.890625 119.003906 91.460938 118.917969 91.039062 C 118.835938 90.613281 118.710938 90.199219 118.542969 89.800781 C 118.378906 89.398438 118.171875 89.019531 117.933594 88.660156 C 117.691406 88.296875 117.417969 87.964844 117.109375 87.65625 C 116.804688 87.351562 116.46875 87.078125 116.109375 86.835938 C 115.75 86.597656 115.367188 86.394531 114.96875 86.226562 C 114.566406 86.0625 114.152344 85.9375 113.730469 85.851562 C 113.304688 85.765625 112.875 85.726562 112.441406 85.726562 Z M 112.441406 85.726562 "/>
<path style=" stroke:none;fill-rule:nonzero;fill:rgb(100%,100%,100%);fill-opacity:1;" d="M 112.441406 128.929688 C 111.238281 128.929688 110.042969 128.875 108.847656 128.757812 C 107.652344 128.640625 106.46875 128.46875 105.289062 128.234375 C 104.113281 128.003906 102.949219 127.714844 101.800781 127.367188 C 100.652344 127.019531 99.523438 126.617188 98.414062 126.160156 C 97.304688 125.703125 96.21875 125.191406 95.160156 124.628906 C 94.101562 124.0625 93.070312 123.449219 92.074219 122.785156 C 91.074219 122.117188 90.109375 121.40625 89.183594 120.644531 C 88.253906 119.886719 87.363281 119.082031 86.515625 118.234375 C 85.664062 117.390625 84.859375 116.503906 84.097656 115.578125 C 83.335938 114.648438 82.621094 113.6875 81.953125 112.691406 C 81.285156 111.695312 80.667969 110.667969 80.097656 109.613281 C 79.53125 108.554688 79.019531 107.472656 78.558594 106.367188 C 78.097656 105.257812 77.695312 104.128906 77.34375 102.984375 C 76.996094 101.835938 76.703125 100.675781 76.46875 99.5 C 76.230469 98.324219 76.054688 97.136719 75.9375 95.945312 C 75.816406 94.75 75.757812 93.554688 75.757812 92.355469 C 75.753906 91.15625 75.8125 89.960938 75.929688 88.765625 C 76.046875 87.574219 76.222656 86.390625 76.453125 85.210938 C 76.6875 84.035156 76.976562 82.875 77.324219 81.726562 C 77.671875 80.578125 78.078125 79.449219 78.535156 78.34375 C 78.992188 77.234375 79.503906 76.152344 80.070312 75.09375 C 80.636719 74.035156 81.25 73.007812 81.917969 72.007812 C 82.582031 71.011719 83.296875 70.050781 84.058594 69.121094 C 84.816406 68.195312 85.621094 67.308594 86.46875 66.457031 C 87.320312 65.609375 88.207031 64.804688 89.132812 64.042969 C 90.0625 63.28125 91.023438 62.566406 92.019531 61.902344 C 93.019531 61.234375 94.046875 60.617188 95.105469 60.050781 C 96.164062 59.488281 97.246094 58.972656 98.355469 58.515625 C 99.464844 58.054688 100.59375 57.652344 101.742188 57.300781 C 102.890625 56.953125 104.050781 56.660156 105.226562 56.425781 C 106.40625 56.191406 107.589844 56.015625 108.785156 55.898438 C 109.980469 55.78125 111.175781 55.722656 112.378906 55.71875 C 113.578125 55.71875 114.773438 55.777344 115.96875 55.894531 C 117.164062 56.011719 118.351562 56.1875 119.527344 56.421875 C 120.703125 56.65625 121.867188 56.945312 123.015625 57.292969 C 124.164062 57.640625 125.292969 58.042969 126.402344 58.503906 C 127.511719 58.960938 128.59375 59.472656 129.652344 60.039062 C 130.710938 60.601562 131.742188 61.21875 132.738281 61.882812 C 133.738281 62.550781 134.699219 63.261719 135.628906 64.023438 C 136.554688 64.785156 137.445312 65.589844 138.292969 66.4375 C 139.144531 67.285156 139.949219 68.171875 140.710938 69.097656 C 141.472656 70.023438 142.183594 70.988281 142.851562 71.984375 C 143.519531 72.980469 144.136719 74.007812 144.703125 75.066406 C 145.265625 76.121094 145.78125 77.207031 146.238281 78.3125 C 146.699219 79.421875 147.101562 80.550781 147.453125 81.695312 C 147.800781 82.84375 148.089844 84.007812 148.324219 85.183594 C 148.558594 86.359375 148.734375 87.542969 148.851562 88.734375 C 148.972656 89.929688 149.03125 91.125 149.03125 92.324219 C 149.03125 92.632812 149 92.9375 148.941406 93.238281 C 148.878906 93.539062 148.789062 93.832031 148.671875 94.117188 C 148.554688 94.402344 148.410156 94.671875 148.242188 94.925781 C 148.070312 95.179688 147.875 95.417969 147.65625 95.636719 C 147.441406 95.851562 147.203125 96.046875 146.949219 96.21875 C 146.691406 96.386719 146.421875 96.53125 146.136719 96.648438 C 145.851562 96.765625 145.558594 96.855469 145.257812 96.917969 C 144.957031 96.976562 144.652344 97.007812 144.34375 97.007812 C 144.039062 97.007812 143.734375 96.976562 143.429688 96.917969 C 143.128906 96.855469 142.835938 96.765625 142.550781 96.648438 C 142.269531 96.53125 141.996094 96.386719 141.742188 96.21875 C 141.484375 96.046875 141.25 95.851562 141.03125 95.636719 C 140.816406 95.417969 140.621094 95.179688 140.449219 94.925781 C 140.277344 94.671875 140.132812 94.402344 140.015625 94.117188 C 139.898438 93.832031 139.808594 93.539062 139.75 93.238281 C 139.691406 92.9375 139.660156 92.632812 139.660156 92.324219 C 139.660156 91.3125 139.605469 90.304688 139.492188 89.300781 C 139.378906 88.292969 139.210938 87.296875 138.988281 86.308594 C 138.765625 85.324219 138.488281 84.351562 138.15625 83.394531 C 137.824219 82.4375 137.441406 81.503906 137.003906 80.589844 C 136.570312 79.679688 136.085938 78.792969 135.550781 77.933594 C 135.015625 77.074219 134.433594 76.246094 133.808594 75.453125 C 133.179688 74.65625 132.511719 73.898438 131.800781 73.179688 C 131.085938 72.457031 130.339844 71.78125 129.550781 71.144531 C 128.765625 70.507812 127.945312 69.914062 127.089844 69.371094 C 126.238281 68.824219 125.359375 68.328125 124.449219 67.882812 C 123.539062 67.433594 122.609375 67.039062 121.65625 66.695312 C 120.707031 66.351562 119.738281 66.0625 118.753906 65.824219 C 117.765625 65.589844 116.773438 65.40625 115.765625 65.28125 C 114.761719 65.15625 113.753906 65.089844 112.742188 65.074219 C 111.726562 65.0625 110.71875 65.105469 109.710938 65.207031 C 108.703125 65.304688 107.703125 65.460938 106.710938 65.671875 C 105.722656 65.882812 104.746094 66.148438 103.785156 66.464844 C 102.824219 66.785156 101.882812 67.15625 100.964844 67.582031 C 100.046875 68.007812 99.152344 68.480469 98.285156 69.003906 C 97.417969 69.527344 96.582031 70.097656 95.78125 70.714844 C 94.976562 71.328125 94.210938 71.988281 93.480469 72.691406 C 92.753906 73.394531 92.0625 74.132812 91.417969 74.910156 C 90.769531 75.691406 90.167969 76.5 89.613281 77.347656 C 89.054688 78.191406 88.546875 79.066406 88.089844 79.96875 C 87.628906 80.871094 87.222656 81.792969 86.867188 82.742188 C 86.511719 83.6875 86.207031 84.652344 85.960938 85.632812 C 85.710938 86.617188 85.519531 87.605469 85.378906 88.609375 C 85.242188 89.613281 85.160156 90.617188 85.136719 91.628906 C 85.109375 92.640625 85.140625 93.652344 85.226562 94.660156 C 85.316406 95.667969 85.457031 96.667969 85.65625 97.660156 C 85.855469 98.652344 86.109375 99.628906 86.414062 100.59375 C 86.722656 101.558594 87.082031 102.503906 87.496094 103.425781 C 87.910156 104.351562 88.371094 105.25 88.886719 106.121094 C 89.398438 106.992188 89.960938 107.835938 90.566406 108.644531 C 91.171875 109.453125 91.824219 110.226562 92.515625 110.964844 C 93.210938 111.703125 93.941406 112.398438 94.714844 113.054688 C 95.484375 113.710938 96.289062 114.324219 97.128906 114.890625 C 97.96875 115.457031 98.835938 115.976562 99.734375 116.445312 C 100.628906 116.914062 101.550781 117.332031 102.492188 117.699219 C 103.4375 118.066406 104.398438 118.382812 105.378906 118.640625 C 106.355469 118.902344 107.347656 119.109375 108.347656 119.257812 C 109.347656 119.40625 110.355469 119.503906 111.367188 119.539062 C 112.378906 119.578125 113.390625 119.558594 114.402344 119.484375 C 115.410156 119.410156 116.414062 119.28125 117.410156 119.09375 C 118.40625 118.910156 119.386719 118.667969 120.355469 118.371094 C 121.324219 118.078125 122.273438 117.726562 123.203125 117.328125 C 124.132812 116.925781 125.035156 116.476562 125.917969 115.972656 C 126.796875 115.472656 127.644531 114.921875 128.460938 114.324219 C 128.710938 114.144531 128.976562 113.988281 129.257812 113.859375 C 129.535156 113.730469 129.824219 113.628906 130.125 113.558594 C 130.425781 113.484375 130.730469 113.441406 131.035156 113.429688 C 131.34375 113.417969 131.652344 113.433594 131.957031 113.484375 C 132.261719 113.53125 132.558594 113.609375 132.847656 113.714844 C 133.136719 113.820312 133.410156 113.953125 133.675781 114.113281 C 133.9375 114.273438 134.183594 114.460938 134.410156 114.667969 C 134.636719 114.878906 134.839844 115.105469 135.023438 115.355469 C 135.203125 115.605469 135.359375 115.867188 135.488281 116.148438 C 135.617188 116.425781 135.71875 116.71875 135.789062 117.015625 C 135.863281 117.316406 135.90625 117.621094 135.917969 117.925781 C 135.929688 118.234375 135.914062 118.539062 135.863281 118.84375 C 135.816406 119.148438 135.738281 119.445312 135.632812 119.734375 C 135.527344 120.023438 135.394531 120.300781 135.234375 120.5625 C 135.070312 120.824219 134.886719 121.070312 134.679688 121.296875 C 134.46875 121.523438 134.238281 121.726562 133.992188 121.910156 C 130.867188 124.199219 127.460938 125.945312 123.777344 127.144531 C 120.09375 128.34375 116.316406 128.941406 112.441406 128.929688 Z M 112.441406 128.929688 "/>
<path style=" stroke:none;fill-rule:nonzero;fill:rgb(100%,100%,100%);fill-opacity:1;" d="M 134.039062 108.285156 C 133.050781 108.285156 132.074219 108.191406 131.105469 108 C 130.136719 107.804688 129.195312 107.519531 128.28125 107.144531 C 127.371094 106.765625 126.503906 106.304688 125.683594 105.753906 C 124.863281 105.207031 124.101562 104.582031 123.402344 103.886719 C 122.707031 103.1875 122.082031 102.429688 121.535156 101.609375 C 120.984375 100.789062 120.523438 99.921875 120.144531 99.011719 C 119.765625 98.101562 119.480469 97.160156 119.289062 96.191406 C 119.09375 95.226562 119 94.246094 119 93.261719 L 128.367188 92.980469 L 128.367188 93.261719 C 128.332031 93.652344 128.339844 94.042969 128.382812 94.4375 C 128.429688 94.828125 128.515625 95.207031 128.640625 95.582031 C 128.765625 95.953125 128.929688 96.3125 129.128906 96.648438 C 129.328125 96.988281 129.5625 97.304688 129.828125 97.59375 C 130.09375 97.886719 130.386719 98.144531 130.707031 98.375 C 131.027344 98.605469 131.367188 98.800781 131.726562 98.957031 C 132.085938 99.117188 132.460938 99.238281 132.84375 99.316406 C 133.230469 99.398438 133.621094 99.441406 134.015625 99.441406 C 134.410156 99.441406 134.796875 99.398438 135.183594 99.316406 C 135.570312 99.238281 135.941406 99.117188 136.300781 98.957031 C 136.664062 98.800781 137.003906 98.605469 137.324219 98.375 C 137.644531 98.144531 137.933594 97.886719 138.199219 97.59375 C 138.464844 97.304688 138.699219 96.988281 138.898438 96.648438 C 139.097656 96.3125 139.261719 95.953125 139.386719 95.582031 C 139.511719 95.207031 139.597656 94.828125 139.644531 94.4375 C 139.691406 94.042969 139.695312 93.652344 139.660156 93.261719 L 139.660156 92.324219 L 149.03125 92.324219 L 149.03125 93.261719 C 149.03125 94.246094 148.933594 95.222656 148.742188 96.1875 C 148.550781 97.152344 148.265625 98.089844 147.890625 99 C 147.511719 99.910156 147.050781 100.773438 146.503906 101.59375 C 145.957031 102.414062 145.335938 103.171875 144.640625 103.871094 C 143.945312 104.566406 143.1875 105.191406 142.371094 105.738281 C 141.550781 106.289062 140.6875 106.75 139.777344 107.128906 C 138.867188 107.507812 137.929688 107.796875 136.964844 107.992188 C 136 108.183594 135.023438 108.285156 134.039062 108.285156 Z M 134.039062 108.285156 "/>
</g>
</svg>
