<?xml version="1.0" encoding="UTF-8"?>
<svg xmlns="http://www.w3.org/2000/svg" xmlns:xlink="http://www.w3.org/1999/xlink" width="224.87999pt" height="225pt" viewBox="0 0 224.87999 225" version="1.2">
<defs>
<clipPath id="clip1">
  <path d="M 15.039062 0.109375 L 209.929688 0.109375 L 209.929688 224.890625 L 15.039062 224.890625 Z M 15.039062 0.109375 "/>
</clipPath>
</defs>
<g id="surface1">
<g clip-path="url(#clip1)" clip-rule="nonzero">
<path style=" stroke:none;fill-rule:nonzero;fill:rgb(20.388794%,60.778809%,51.368713%);fill-opacity:1;" d="M 36.15625 50.167969 C 58.613281 24.433594 87.207031 19.570312 107.238281 20.023438 C 114.871094 20.195312 122.4375 21.375 129.734375 23.519531 L 129.734375 80.433594 C 129.734375 85.121094 133.550781 88.933594 138.238281 88.933594 L 157.203125 88.933594 C 161.890625 88.933594 165.703125 85.121094 165.703125 80.433594 L 165.703125 44.765625 C 166.789062 45.847656 167.847656 46.960938 168.867188 48.09375 C 178.097656 58.378906 181.796875 67.398438 179.863281 74.90625 L 179.269531 77.222656 C 177.898438 82.570312 179.023438 88.164062 182.359375 92.5625 L 203.554688 120.515625 C 203.96875 121.0625 203.902344 121.625 203.828125 121.910156 C 203.75 122.191406 203.527344 122.710938 202.894531 122.980469 L 193.597656 126.910156 C 189.949219 128.453125 188.210938 132.6875 189.722656 136.347656 L 193.421875 145.308594 L 190.140625 147.652344 C 189.085938 148.40625 188.382812 149.578125 188.214844 150.863281 C 188.050781 152.148438 188.425781 153.460938 189.253906 154.460938 L 192.1875 158 L 190.257812 160.148438 C 186.636719 164.183594 185.621094 170.03125 187.667969 175.050781 C 189.957031 180.65625 188.207031 187.160156 183.417969 190.867188 L 183.183594 191.050781 C 180.742188 192.941406 177.695312 193.945312 174.609375 193.882812 L 152.800781 193.425781 C 152.722656 193.425781 152.644531 193.425781 152.566406 193.425781 C 147.28125 193.425781 142.734375 197.144531 141.714844 202.351562 L 139.277344 214.769531 C 138.8125 217.132812 136.726562 218.847656 134.316406 218.847656 L 51.113281 218.847656 C 49.621094 218.847656 48.210938 218.195312 47.25 217.050781 C 46.285156 215.910156 45.878906 214.410156 46.132812 212.941406 L 53.125 172.339844 C 54.140625 166.441406 52.578125 160.394531 48.835938 155.746094 C 33.71875 136.960938 2.214844 89.074219 36.15625 50.167969 Z M 135.78125 8.609375 C 135.78125 7.253906 136.882812 6.152344 138.238281 6.152344 L 157.203125 6.152344 C 158.554688 6.152344 159.660156 7.253906 159.660156 8.609375 L 159.660156 80.433594 C 159.660156 81.789062 158.554688 82.890625 157.203125 82.890625 L 138.238281 82.890625 C 136.882812 82.890625 135.78125 81.789062 135.78125 80.433594 Z M 44.128906 159.535156 C 46.78125 162.832031 47.890625 167.125 47.167969 171.316406 L 40.175781 211.914062 C 39.621094 215.144531 40.511719 218.4375 42.625 220.945312 C 44.738281 223.453125 47.832031 224.890625 51.113281 224.890625 L 134.316406 224.890625 C 139.609375 224.890625 144.191406 221.125 145.207031 215.933594 L 147.644531 203.515625 C 148.109375 201.152344 150.171875 199.46875 152.566406 199.46875 C 152.601562 199.46875 152.636719 199.46875 152.671875 199.46875 L 174.480469 199.921875 C 178.945312 200.019531 183.351562 198.5625 186.882812 195.828125 L 187.117188 195.644531 C 194.046875 190.285156 196.574219 180.875 193.265625 172.765625 C 192.085938 169.875 192.671875 166.507812 194.757812 164.183594 L 197.464844 161.171875 C 199.003906 159.457031 199.058594 156.824219 197.585938 155.046875 L 194.839844 151.726562 L 197.8125 149.605469 C 199.597656 148.328125 200.257812 146.023438 199.421875 143.996094 L 195.3125 134.039062 C 195.058594 133.433594 195.347656 132.730469 195.953125 132.476562 L 205.25 128.542969 C 207.441406 127.617188 209.050781 125.765625 209.667969 123.46875 C 210.28125 121.167969 209.808594 118.761719 208.371094 116.867188 L 187.179688 88.914062 C 184.960938 85.988281 184.214844 82.277344 185.125 78.722656 L 185.71875 76.410156 C 188.1875 66.828125 184.03125 55.941406 173.367188 44.058594 C 171.074219 41.507812 168.609375 39.0625 166.039062 36.789062 C 165.933594 36.695312 165.820312 36.613281 165.703125 36.535156 L 165.703125 8.609375 C 165.703125 3.921875 161.890625 0.109375 157.203125 0.109375 L 138.238281 0.109375 C 133.550781 0.109375 129.734375 3.921875 129.734375 8.609375 L 129.734375 17.238281 C 122.457031 15.25 114.949219 14.15625 107.375 13.984375 C 93.921875 13.679688 81.230469 15.652344 69.660156 19.847656 C 55.035156 25.152344 42.230469 34.019531 31.601562 46.199219 C 22.867188 56.210938 17.523438 67.53125 15.726562 79.847656 C 14.222656 90.164062 15.1875 101.253906 18.605469 112.8125 C 24.699219 133.445312 37.210938 150.941406 44.128906 159.535156 "/>
</g>
<path style=" stroke:none;fill-rule:nonzero;fill:rgb(20.388794%,60.778809%,51.368713%);fill-opacity:1;" d="M 47.515625 82.289062 L 47.515625 53.285156 C 47.515625 52.957031 47.792969 52.679688 48.121094 52.679688 L 70.792969 52.679688 C 71.117188 52.679688 71.394531 52.957031 71.394531 53.285156 L 71.394531 82.289062 C 71.394531 82.613281 71.117188 82.890625 70.792969 82.890625 L 48.121094 82.890625 C 47.792969 82.890625 47.515625 82.613281 47.515625 82.289062 Z M 77.441406 82.289062 L 77.441406 53.285156 C 77.441406 49.617188 74.457031 46.636719 70.792969 46.636719 L 48.121094 46.636719 C 44.453125 46.636719 41.472656 49.617188 41.472656 53.285156 L 41.472656 82.289062 C 41.472656 85.953125 44.453125 88.933594 48.121094 88.933594 L 70.792969 88.933594 C 74.457031 88.933594 77.441406 85.953125 77.441406 82.289062 "/>
<path style=" stroke:none;fill-rule:nonzero;fill:rgb(20.388794%,60.778809%,51.368713%);fill-opacity:1;" d="M 91.648438 35.390625 C 91.648438 34.609375 92.308594 33.949219 93.09375 33.949219 L 114.082031 33.949219 C 114.867188 33.949219 115.527344 34.609375 115.527344 35.390625 L 115.527344 81.449219 C 115.527344 82.230469 114.867188 82.890625 114.082031 82.890625 L 93.09375 82.890625 C 92.308594 82.890625 91.648438 82.230469 91.648438 81.449219 Z M 93.09375 88.933594 L 114.082031 88.933594 C 118.214844 88.933594 121.574219 85.574219 121.574219 81.449219 L 121.574219 35.390625 C 121.574219 31.261719 118.214844 27.90625 114.082031 27.90625 L 93.09375 27.90625 C 88.964844 27.90625 85.601562 31.261719 85.601562 35.390625 L 85.601562 81.449219 C 85.601562 85.574219 88.964844 88.933594 93.09375 88.933594 "/>
</g>
</svg>
