<?xml version="1.0" encoding="UTF-8"?>
<svg xmlns="http://www.w3.org/2000/svg" xmlns:xlink="http://www.w3.org/1999/xlink" width="294pt" height="225pt" viewBox="0 0 294 225" version="1.2">
<defs>
<clipPath id="clip1">
  <path d="M 75.277344 18.523438 L 168 18.523438 L 168 136 L 75.277344 136 Z M 75.277344 18.523438 "/>
</clipPath>
</defs>
<g id="surface1">
<path style=" stroke:none;fill-rule:nonzero;fill:rgb(9.408569%,27.059937%,26.669312%);fill-opacity:1;" d="M 167.648438 182.140625 C 169.71875 193.945312 171.789062 205.746094 173.859375 217.542969 L 120.070312 217.542969 C 122.125 205.746094 124.199219 193.945312 126.265625 182.140625 L 167.648438 182.140625 "/>
<path style=" stroke:none;fill-rule:nonzero;fill:rgb(20.388794%,60.778809%,51.368713%);fill-opacity:1;" d="M 0.0195312 174.109375 C 0.0195312 181.597656 6.199219 187.667969 13.820312 187.667969 L 280.105469 187.667969 C 287.714844 187.667969 293.886719 181.597656 293.886719 174.109375 L 293.886719 13.527344 C 293.886719 6.039062 287.714844 -0.0273438 280.105469 -0.0273438 L 13.820312 -0.0273438 C 6.199219 -0.0273438 0.0195312 6.039062 0.0195312 13.527344 L 0.0195312 174.109375 "/>
<path style=" stroke:none;fill-rule:nonzero;fill:rgb(96.078491%,96.078491%,96.078491%);fill-opacity:1;" d="M 9.726562 165.769531 L 284.183594 165.769531 L 284.183594 9.796875 L 9.726562 9.796875 L 9.726562 165.769531 "/>
<path style=" stroke:none;fill-rule:nonzero;fill:rgb(96.078491%,96.078491%,96.078491%);fill-opacity:1;" d="M 135.582031 178.800781 C 135.707031 175.125 140.746094 172.171875 146.957031 172.171875 C 153.167969 172.171875 158.210938 175.125 158.332031 178.800781 L 135.582031 178.800781 "/>
<path style=" stroke:none;fill-rule:nonzero;fill:rgb(20.388794%,60.778809%,51.368713%);fill-opacity:1;" d="M 105.988281 224.941406 L 187.925781 224.941406 L 187.925781 217.542969 L 105.988281 217.542969 L 105.988281 224.941406 "/>
<path style=" stroke:none;fill-rule:nonzero;fill:rgb(51.368713%,79.998779%,15.689087%);fill-opacity:1;" d="M 197.578125 131.796875 C 218.453125 104.085938 194.003906 47.171875 194.003906 47.171875 C 194.003906 47.171875 177.007812 73.628906 158.363281 81.019531 C 145.90625 85.953125 113.265625 109.015625 147.292969 141.390625 C 147.65625 141.738281 148.039062 142.085938 148.4375 142.429688 C 164.902344 133.949219 196.664062 110.078125 193.46875 52.941406 C 193.46875 52.941406 204.816406 118.015625 150.625 144.183594 C 160.878906 151.777344 178.933594 156.546875 197.578125 131.796875 "/>
<g clip-path="url(#clip1)" clip-rule="nonzero">
<path style=" stroke:none;fill-rule:nonzero;fill:rgb(47.059631%,73.329163%,13.328552%);fill-opacity:1;" d="M 140.136719 86.4375 C 132.097656 65.296875 115.191406 41.992188 81.164062 23.03125 C 81.164062 23.03125 126.105469 41.570312 143.625 84.042969 C 146.316406 82.34375 148.84375 81.074219 150.855469 80.28125 C 156.621094 77.992188 162.222656 73.886719 167.222656 69.300781 C 149.375 30.28125 75.351562 18.542969 75.351562 18.542969 C 75.351562 18.542969 92.15625 54.753906 87.433594 79.8125 C 84.476562 95.480469 86.535156 140.925781 134.148438 134.675781 C 115.734375 112.605469 128.003906 95.484375 140.136719 86.4375 "/>
</g>
</g>
</svg>
