<?xml version="1.0" encoding="UTF-8"?>
<svg xmlns="http://www.w3.org/2000/svg" xmlns:xlink="http://www.w3.org/1999/xlink" width="300pt" height="225pt" viewBox="0 0 300 225" version="1.2">
<defs>
<clipPath id="clip1">
  <path d="M 3.132812 9 L 291 9 L 291 225 L 3.132812 225 Z M 3.132812 9 "/>
</clipPath>
</defs>
<g id="surface1">
<path style=" stroke:none;fill-rule:nonzero;fill:rgb(90.979004%,94.898987%,92.158508%);fill-opacity:1;" d="M 193.316406 206.257812 C 192.238281 204.097656 190.789062 202.078125 188.492188 200.382812 C 187.757812 203.15625 187.894531 205.636719 188.402344 208 C 186.242188 209.054688 184.222656 210.5 182.523438 212.820312 C 185.300781 213.554688 187.78125 213.414062 190.125 212.886719 C 191.179688 215.046875 192.625 217.066406 194.96875 218.785156 C 195.703125 216.007812 195.566406 213.53125 195.0625 211.167969 C 197.195312 210.113281 199.21875 208.664062 200.941406 206.347656 C 198.136719 205.589844 195.65625 205.75 193.316406 206.257812 "/>
<path style=" stroke:none;fill-rule:nonzero;fill:rgb(90.979004%,94.898987%,92.158508%);fill-opacity:1;" d="M 297.0625 153.933594 C 294.285156 153.199219 291.78125 153.339844 289.441406 153.84375 C 288.382812 151.707031 286.9375 149.6875 284.617188 147.96875 C 283.882812 150.769531 284.019531 153.222656 284.527344 155.585938 C 282.390625 156.644531 280.347656 158.089844 278.648438 160.40625 C 281.425781 161.140625 283.90625 161.003906 286.25 160.496094 C 287.328125 162.65625 288.773438 164.675781 291.09375 166.371094 C 291.828125 163.597656 291.691406 161.117188 291.1875 158.777344 C 293.320312 157.699219 295.363281 156.253906 297.0625 153.933594 "/>
<path style=" stroke:none;fill-rule:nonzero;fill:rgb(90.979004%,94.898987%,92.158508%);fill-opacity:1;" d="M 283.46875 93.144531 C 284.527344 95.304688 285.972656 97.320312 288.316406 99.019531 C 289.050781 96.242188 288.914062 93.765625 288.40625 91.425781 C 290.542969 90.347656 292.5625 88.921875 294.285156 86.582031 C 291.484375 85.847656 289.003906 85.984375 286.660156 86.492188 C 285.582031 84.355469 284.136719 82.335938 281.839844 80.617188 C 281.082031 83.414062 281.242188 85.894531 281.746094 88.234375 C 279.589844 89.289062 277.570312 90.734375 275.871094 93.054688 C 278.648438 93.789062 281.128906 93.652344 283.46875 93.144531 "/>
<path style=" stroke:none;fill-rule:nonzero;fill:rgb(90.979004%,94.898987%,92.158508%);fill-opacity:1;" d="M 147.390625 11.40625 C 149.042969 13.125 151.039062 14.617188 153.773438 15.535156 C 153.636719 12.667969 152.761719 10.347656 151.546875 8.261719 C 153.269531 6.609375 154.761719 4.613281 155.679688 1.882812 C 152.808594 2.019531 150.488281 2.914062 148.398438 4.109375 C 146.722656 2.386719 144.75 0.894531 142.015625 -0.0234375 C 142.152344 2.84375 143.050781 5.164062 144.242188 7.25 C 142.519531 8.925781 141.027344 10.898438 140.109375 13.632812 C 142.980469 13.492188 145.300781 12.597656 147.390625 11.40625 "/>
<path style=" stroke:none;fill-rule:nonzero;fill:rgb(90.979004%,94.898987%,92.158508%);fill-opacity:1;" d="M 57.945312 145.445312 C 56.269531 143.722656 54.296875 142.230469 51.5625 141.3125 C 51.699219 144.203125 52.597656 146.523438 53.789062 148.589844 C 52.066406 150.261719 50.574219 152.257812 49.65625 154.992188 C 52.527344 154.828125 54.847656 153.957031 56.9375 152.742188 C 58.589844 154.484375 60.585938 155.953125 63.320312 156.894531 C 63.183594 154.003906 62.308594 151.6875 61.09375 149.621094 C 62.835938 147.945312 64.308594 145.949219 65.226562 143.21875 C 62.355469 143.355469 60.011719 144.25 57.945312 145.445312 "/>
<path style=" stroke:none;fill-rule:nonzero;fill:rgb(90.979004%,94.898987%,92.158508%);fill-opacity:1;" d="M 103.78125 39.21875 C 104.835938 41.375 106.285156 43.394531 108.625 45.09375 C 109.363281 42.316406 109.222656 39.835938 108.695312 37.496094 C 110.855469 36.417969 112.875 34.996094 114.597656 32.65625 C 111.796875 31.921875 109.316406 32.058594 106.972656 32.5625 C 105.894531 30.429688 104.449219 28.410156 102.152344 26.6875 C 101.417969 29.488281 101.554688 31.964844 102.058594 34.308594 C 99.902344 35.363281 97.878906 36.808594 96.179688 39.125 C 98.960938 39.859375 101.4375 39.722656 103.78125 39.21875 "/>
<g clip-path="url(#clip1)" clip-rule="nonzero">
<path style=" stroke:none;fill-rule:nonzero;fill:rgb(90.979004%,94.898987%,92.158508%);fill-opacity:1;" d="M 285.078125 217.269531 C 285.078125 218.464844 284.066406 219.453125 282.828125 219.453125 L 231.296875 219.453125 C 230.058594 219.453125 229.046875 218.464844 229.046875 217.269531 L 229.046875 192.921875 C 229.046875 191.707031 230.058594 190.699219 231.296875 190.699219 L 282.828125 190.699219 C 284.066406 190.699219 285.078125 191.707031 285.078125 192.921875 Z M 135.792969 149.09375 C 132.050781 149.09375 128.972656 146.019531 128.972656 142.277344 C 128.972656 138.46875 132.050781 135.394531 135.792969 135.394531 C 139.605469 135.394531 142.679688 138.46875 142.679688 142.277344 C 142.679688 146.019531 139.605469 149.09375 135.792969 149.09375 Z M 180.546875 155.769531 C 179.101562 159.394531 177.308594 162.769531 175.128906 165.777344 C 170.972656 171.605469 165.371094 176.539062 158.984375 180.117188 L 138.59375 180.117188 L 138.59375 154.371094 C 144.152344 153.085938 148.285156 148.152344 148.285156 142.277344 C 148.285156 135.394531 142.679688 129.792969 135.792969 129.792969 C 128.972656 129.792969 123.371094 135.394531 123.371094 142.277344 C 123.371094 148.152344 127.503906 153.085938 132.992188 154.371094 L 132.992188 180.117188 L 112.554688 180.117188 C 97.261719 171.605469 87.683594 155.542969 87.683594 138.007812 C 87.683594 111.527344 109.292969 89.816406 135.863281 89.816406 C 138.984375 89.816406 142.015625 90.164062 144.863281 90.714844 C 151.753906 92 158.527344 94.914062 164.429688 99.226562 C 176.644531 108.292969 183.96875 122.792969 183.96875 138.007812 C 183.96875 144.113281 182.84375 149.988281 180.617188 155.585938 C 180.617188 155.65625 180.617188 155.703125 180.546875 155.769531 Z M 156.917969 210.226562 C 156.917969 212.566406 155.011719 214.539062 152.601562 214.539062 L 118.9375 214.539062 C 116.59375 214.539062 114.621094 212.566406 114.621094 210.226562 L 114.621094 185.71875 L 156.917969 185.71875 Z M 155.910156 61.9375 L 164.632812 66.480469 C 165.371094 66.824219 166.21875 66.871094 166.929688 66.59375 L 177.863281 62.554688 C 178.597656 62.28125 179.214844 61.660156 179.492188 60.949219 L 183.121094 51.769531 L 194.003906 52.160156 L 197.011719 61.546875 C 197.242188 62.347656 197.746094 62.898438 198.484375 63.246094 C 201.328125 64.574219 203.28125 65.46875 205.53125 66.480469 L 209.160156 68.109375 C 209.894531 68.429688 210.675781 68.429688 211.410156 68.109375 L 220.480469 64.183594 C 223.167969 67.144531 224.179688 68.222656 226.3125 70.449219 L 227.875 72.125 L 223.351562 80.867188 C 222.960938 81.601562 222.960938 82.429688 223.238281 83.164062 C 223.511719 84.011719 225.535156 89.382812 225.808594 90.207031 L 227.277344 94.132812 C 227.53125 94.914062 228.105469 95.53125 228.886719 95.808594 L 238.070312 99.457031 C 237.910156 104.320312 237.839844 105.378906 237.679688 110.3125 L 228.265625 113.269531 C 227.484375 113.5 226.867188 114.050781 226.542969 114.785156 L 221.722656 125.433594 C 221.378906 126.097656 221.378906 126.925781 221.652344 127.660156 L 225.648438 136.722656 L 217.632812 144.113281 L 208.886719 139.59375 C 208.171875 139.203125 207.324219 139.203125 206.542969 139.476562 L 205.648438 139.800781 C 205.027344 140.027344 204.523438 140.257812 203.855469 140.488281 L 200.503906 141.703125 C 199.101562 142.277344 197.585938 142.78125 195.679688 143.492188 C 194.878906 143.792969 194.324219 144.386719 194.050781 145.121094 L 190.398438 154.300781 L 187.046875 154.1875 C 188.675781 149 189.574219 143.5625 189.574219 138.007812 C 189.574219 134.3125 189.113281 130.734375 188.402344 127.222656 C 201.054688 126.328125 211.066406 115.910156 211.066406 103.035156 C 211.066406 93.191406 205.1875 84.402344 196.117188 80.59375 C 193.109375 79.355469 189.964844 78.734375 186.769531 78.734375 C 177.242188 78.734375 168.675781 84.332031 164.703125 92.777344 C 159.882812 89.703125 154.667969 87.410156 149.339844 86.078125 C 149.523438 85.617188 149.753906 85.183594 149.960938 84.722656 L 151.820312 80.707031 C 152.140625 79.972656 152.140625 79.191406 151.820312 78.460938 L 147.894531 69.324219 Z M 169.410156 96.152344 C 172.210938 89.105469 179.101562 84.332031 186.769531 84.332031 C 189.226562 84.332031 191.640625 84.792969 193.9375 85.734375 C 200.941406 88.648438 205.464844 95.488281 205.464844 103.035156 C 205.464844 113.269531 197.195312 121.671875 186.933594 121.738281 C 183.738281 111.757812 177.699219 102.808594 169.410156 96.152344 Z M 36.75 44.3125 C 36.683594 44.3125 36.683594 44.3125 36.683594 44.3125 L 10.964844 44.3125 C 9.746094 44.3125 8.734375 43.304688 8.734375 42.085938 L 8.734375 17.738281 C 8.734375 16.5 9.746094 15.535156 10.964844 15.535156 L 62.492188 15.535156 C 63.734375 15.535156 64.699219 16.5 64.699219 17.738281 L 64.699219 42.085938 C 64.699219 43.304688 63.734375 44.3125 62.492188 44.3125 L 36.796875 44.3125 C 36.75 44.3125 36.75 44.3125 36.75 44.3125 Z M 282.828125 185.097656 L 259.863281 185.097656 L 259.863281 167.40625 C 259.863281 165.84375 258.625 164.605469 257.0625 164.605469 L 182.453125 164.605469 C 183.351562 163.046875 184.128906 161.371094 184.910156 159.671875 L 192.191406 159.96875 L 192.257812 159.96875 C 193.429688 159.96875 194.441406 159.28125 194.878906 158.226562 L 198.804688 148.3125 C 200.160156 147.808594 201.328125 147.371094 202.457031 146.980469 L 205.761719 145.742188 C 206.3125 145.582031 206.816406 145.351562 207.4375 145.121094 L 216.785156 149.988281 C 217.863281 150.5625 219.148438 150.378906 219.976562 149.597656 L 230.839844 139.476562 C 231.757812 138.699219 232.03125 137.414062 231.527344 136.289062 L 227.324219 126.605469 L 231.136719 118.203125 L 241.261719 115.0625 C 242.386719 114.671875 243.167969 113.660156 243.238281 112.445312 C 243.445312 105.054688 243.445312 105.054688 243.71875 97.667969 C 243.789062 96.472656 243.054688 95.417969 242 94.980469 L 232.078125 91.058594 L 231.066406 88.257812 C 231.023438 88.097656 230.976562 87.914062 230.90625 87.753906 L 229 82.152344 L 233.753906 72.929688 C 234.328125 71.851562 234.144531 70.566406 233.316406 69.738281 L 230.355469 66.59375 C 227.945312 64.070312 226.980469 63.0625 223.238281 58.929688 C 222.433594 58.082031 221.171875 57.804688 220.089844 58.265625 L 210.355469 62.511719 L 207.828125 61.386719 C 205.875 60.492188 204.199219 59.757812 201.949219 58.699219 L 198.757812 48.625 C 198.367188 47.503906 197.355469 46.722656 196.1875 46.675781 L 181.328125 46.054688 C 180.15625 45.988281 179.101562 46.722656 178.640625 47.847656 L 174.738281 57.761719 L 166.148438 60.949219 L 156.6875 56.0625 C 155.679688 55.558594 154.394531 55.742188 153.496094 56.519531 L 142.636719 66.59375 C 141.785156 67.375 141.511719 68.660156 141.945312 69.738281 L 146.21875 79.515625 L 144.863281 82.3125 C 144.472656 83.210938 144.082031 84.058594 143.691406 84.90625 C 141.164062 84.515625 138.546875 84.21875 135.863281 84.21875 C 117.492188 84.21875 101.253906 93.511719 91.542969 107.625 L 39.554688 107.625 L 39.554688 49.910156 L 62.492188 49.910156 C 66.808594 49.910156 70.300781 46.378906 70.300781 42.085938 L 70.300781 17.738281 C 70.300781 13.425781 66.808594 9.960938 62.492188 9.960938 L 10.964844 9.960938 C 6.667969 9.960938 3.132812 13.425781 3.132812 17.738281 L 3.132812 42.085938 C 3.132812 46.378906 6.667969 49.910156 10.964844 49.910156 L 33.925781 49.910156 L 33.925781 110.425781 C 33.925781 111.984375 35.167969 113.226562 36.75 113.226562 L 88.1875 113.226562 C 84.308594 120.636719 82.082031 129.082031 82.082031 138.007812 C 82.082031 157.285156 92.390625 174.839844 109.015625 184.480469 L 109.015625 210.226562 C 109.015625 215.710938 113.496094 220.140625 118.9375 220.140625 L 152.601562 220.140625 C 158.089844 220.140625 162.523438 215.710938 162.523438 210.226562 L 162.523438 184.480469 C 168.835938 180.828125 174.394531 175.917969 178.757812 170.203125 L 254.261719 170.203125 L 254.261719 185.097656 L 231.296875 185.097656 C 226.980469 185.097656 223.445312 188.609375 223.445312 192.921875 L 223.445312 217.269531 C 223.445312 221.585938 226.980469 225.050781 231.296875 225.050781 L 282.828125 225.050781 C 287.144531 225.050781 290.65625 221.585938 290.65625 217.269531 L 290.65625 192.921875 C 290.65625 188.609375 287.144531 185.097656 282.828125 185.097656 "/>
</g>
<path style=" stroke:none;fill-rule:nonzero;fill:rgb(90.979004%,94.898987%,92.158508%);fill-opacity:1;" d="M 52.230469 33.089844 L 21.207031 33.089844 C 19.667969 33.089844 18.402344 34.351562 18.402344 35.890625 C 18.402344 37.449219 19.667969 38.691406 21.207031 38.691406 L 52.230469 38.691406 C 53.765625 38.691406 55.007812 37.449219 55.007812 35.890625 C 55.007812 34.351562 53.765625 33.089844 52.230469 33.089844 "/>
<path style=" stroke:none;fill-rule:nonzero;fill:rgb(90.979004%,94.898987%,92.158508%);fill-opacity:1;" d="M 52.230469 21.15625 L 21.207031 21.15625 C 19.667969 21.15625 18.402344 22.421875 18.402344 23.957031 C 18.402344 25.519531 19.667969 26.757812 21.207031 26.757812 L 52.230469 26.757812 C 53.765625 26.757812 55.007812 25.519531 55.007812 23.957031 C 55.007812 22.421875 53.765625 21.15625 52.230469 21.15625 "/>
<path style=" stroke:none;fill-rule:nonzero;fill:rgb(90.979004%,94.898987%,92.158508%);fill-opacity:1;" d="M 272.585938 196.320312 L 241.539062 196.320312 C 240 196.320312 238.761719 197.582031 238.761719 199.121094 C 238.761719 200.679688 240 201.917969 241.539062 201.917969 L 272.585938 201.917969 C 274.125 201.917969 275.363281 200.679688 275.363281 199.121094 C 275.363281 197.582031 274.125 196.320312 272.585938 196.320312 "/>
<path style=" stroke:none;fill-rule:nonzero;fill:rgb(90.979004%,94.898987%,92.158508%);fill-opacity:1;" d="M 272.585938 208.253906 L 241.539062 208.253906 C 240 208.253906 238.761719 209.492188 238.761719 211.050781 C 238.761719 212.589844 240 213.851562 241.539062 213.851562 L 272.585938 213.851562 C 274.125 213.851562 275.363281 212.589844 275.363281 211.050781 C 275.363281 209.492188 274.125 208.253906 272.585938 208.253906 "/>
</g>
</svg>
